<svg width="24" height="24" viewBox="0 0 24 24" fill="none" xmlns="http://www.w3.org/2000/svg">
<path fill-rule="evenodd" clip-rule="evenodd" d="M5 1C3.93913 1 2.92172 1.42143 2.17157 2.17157C1.42143 2.92172 1 3.93913 1 5V19C1 20.0609 1.42143 21.0783 2.17157 21.8284C2.92172 22.5786 3.93913 23 5 23H19C20.0609 23 21.0783 22.5786 21.8284 21.8284C22.5786 21.0783 23 20.0609 23 19V5C23 3.93913 22.5786 2.92172 21.8284 2.17157C21.0783 1.42143 20.0609 1 19 1H5ZM4.5 9C4.5 7.80653 4.97411 6.66193 5.81802 5.81802C6.66193 4.97411 7.80653 4.5 9 4.5H15C16.1935 4.5 17.3381 4.97411 18.182 5.81802C19.0259 6.66193 19.5 7.80653 19.5 9V15C19.5 16.1935 19.0259 17.3381 18.182 18.182C17.3381 19.0259 16.1935 19.5 15 19.5H9C7.80653 19.5 6.66193 19.0259 5.81802 18.182C4.97411 17.3381 4.5 16.1935 4.5 15V9ZM9 5.5C8.07174 5.5 7.1815 5.86875 6.52513 6.52513C5.86875 7.1815 5.5 8.07174 5.5 9V15C5.5 15.9283 5.86875 16.8185 6.52513 17.4749C7.1815 18.1313 8.07174 18.5 9 18.5H15C15.9283 18.5 16.8185 18.1313 17.4749 17.4749C18.1313 16.8185 18.5 15.9283 18.5 15V9C18.5 8.07174 18.1313 7.1815 17.4749 6.52513C16.8185 5.86875 15.9283 5.5 15 5.5H9ZM17 8.167C17 8.38806 16.9122 8.60006 16.7559 8.75637C16.5996 8.91268 16.3876 9.0005 16.1665 9.0005C15.9454 9.0005 15.7334 8.91268 15.5771 8.75637C15.4208 8.60006 15.333 8.38806 15.333 8.167C15.333 7.94594 15.4208 7.73394 15.5771 7.57763C15.7334 7.42132 15.9454 7.3335 16.1665 7.3335C16.3876 7.3335 16.5996 7.42132 16.7559 7.57763C16.9122 7.73394 17 7.94594 17 8.167ZM8.167 12C8.167 10.9834 8.57083 10.0085 9.28966 9.28966C10.0085 8.57083 10.9834 8.167 12 8.167C13.0166 8.167 13.9915 8.57083 14.7103 9.28966C15.4292 10.0085 15.833 10.9834 15.833 12C15.833 13.0166 15.4292 13.9915 14.7103 14.7103C13.9915 15.4292 13.0166 15.833 12 15.833C10.9834 15.833 10.0085 15.4292 9.28966 14.7103C8.57083 13.9915 8.167 13.0166 8.167 12ZM12 9.167C11.2486 9.167 10.5281 9.46548 9.99677 9.99677C9.46548 10.5281 9.167 11.2486 9.167 12C9.167 12.7514 9.46548 13.4719 9.99677 14.0032C10.5281 14.5345 11.2486 14.833 12 14.833C12.7514 14.833 13.4719 14.5345 14.0032 14.0032C14.5345 13.4719 14.833 12.7514 14.833 12C14.833 11.2486 14.5345 10.5281 14.0032 9.99677C13.4719 9.46548 12.7514 9.167 12 9.167Z" fill="#EAE6FF"/>
</svg>
