<svg width="24" height="24" viewBox="0 0 24 24" fill="none" xmlns="http://www.w3.org/2000/svg">
<path fill-rule="evenodd" clip-rule="evenodd" d="M1.00001 12C1.00001 5.925 5.92501 1 12 1C18.075 1 23 5.925 23 12C23 18.075 18.075 23 12 23C10.064 23 8.24301 22.5 6.66201 21.62L1.40001 22.6L2.38001 17.338C1.47225 15.7055 0.997189 13.8679 1.00001 12ZM7.14701 6.647C7.80101 5.992 8.67401 5.934 9.14501 5.957C9.58001 5.977 9.92101 6.229 10.129 6.521L11.081 7.855C11.2872 8.1439 11.3843 8.49657 11.3551 8.85032C11.3258 9.20407 11.172 9.53596 10.921 9.787L10.247 10.46C10.47 11.004 10.917 11.88 11.519 12.481C12.121 13.082 12.996 13.531 13.539 13.754L14.214 13.08C14.465 12.8293 14.7967 12.6757 15.1502 12.6464C15.5037 12.6171 15.8562 12.714 16.145 12.92L17.48 13.871C17.771 14.08 18.024 14.421 18.044 14.855C18.066 15.326 18.008 16.199 17.354 16.854C16.287 17.92 14.613 17.931 13.09 17.513C11.54 17.087 9.96001 16.173 8.89301 15.107C7.82801 14.041 6.91301 12.461 6.48701 10.91C6.06901 9.387 6.08001 7.713 7.14701 6.647Z" fill="#EAE6FF"/>
</svg>
