<svg width="4755" height="1001" viewBox="0 0 4755 1001" fill="none" xmlns="http://www.w3.org/2000/svg">
<path d="M1000.96 500.48V1000.96H916.94V500.48C916.94 270.84 730.13 84.0198 500.48 84.0198C270.83 84.0198 84.02 270.83 84.02 500.48V1000.96H0V500.48C0 224.08 224.08 0 500.48 0C776.88 0 1000.96 224.08 1000.96 500.48Z" fill="white"/>
<path d="M2252.15 500.48C2252.15 776.88 2028.07 1000.96 1751.67 1000.96C1475.27 1000.96 1251.19 776.88 1251.19 500.48C1251.19 224.08 1475.27 0 1751.67 0C2028.07 0 2252.15 224.08 2252.15 500.48ZM2168.13 500.48C2168.13 270.84 1981.32 84.0198 1751.67 84.0198C1522.02 84.0198 1335.21 270.83 1335.21 500.48C1335.21 730.13 1522.02 916.94 1751.67 916.94C1981.32 916.94 2168.13 730.12 2168.13 500.48ZM1751.68 563.34C1716.99 563.34 1688.82 535.17 1688.82 500.48C1688.82 465.79 1716.99 437.62 1751.68 437.62C1786.37 437.62 1814.54 465.79 1814.54 500.48C1814.54 535.17 1786.37 563.34 1751.68 563.34Z" fill="white"/>
<path d="M3419.32 0H3503.34V500.48C3503.34 776.88 3279.26 1000.96 3002.86 1000.96C2726.46 1000.96 2502.38 776.88 2502.38 500.48V0H2586.4V500.48C2586.4 730.12 2773.21 916.94 3002.86 916.94C3232.51 916.94 3419.32 730.12 3419.32 500.48V0Z" fill="white"/>
<path d="M4754.53 0V84.0198H4024.82C3921.58 84.0198 3837.59 168 3837.59 271.24C3837.59 374.48 3921.58 458.47 4024.82 458.47H4483.28C4633.09 458.47 4754.53 579.91 4754.53 729.72C4754.53 879.53 4633.09 1000.97 4483.28 1000.97H3753.57V916.95H4483.28C4586.52 916.95 4670.51 832.97 4670.51 729.73C4670.51 626.49 4586.52 542.5 4483.28 542.5H4024.82C3875.01 542.5 3753.57 421.06 3753.57 271.25C3753.57 121.44 3875.01 0 4024.82 0H4754.53Z" fill="white"/>
</svg>
