<svg width="25" height="25" viewBox="0 0 25 25" fill="none" xmlns="http://www.w3.org/2000/svg">
<path d="M23.3411 8.62771V3.98137H18.6948V5.53015H10.9509V3.20698C10.9503 2.79641 10.7869 2.40283 10.4966 2.11251C10.2063 1.82219 9.81268 1.65882 9.4021 1.6582H3.20698C2.79641 1.65882 2.40283 1.82219 2.11251 2.11251C1.82219 2.40283 1.65882 2.79641 1.6582 3.20698V9.4021C1.65882 9.81268 1.82219 10.2063 2.11251 10.4966C2.40283 10.7869 2.79641 10.9503 3.20698 10.9509H9.4021C9.81268 10.9503 10.2063 10.7869 10.4966 10.4966C10.7869 10.2063 10.9503 9.81268 10.9509 9.4021V7.07893C11.5668 7.07955 12.1574 7.32451 12.5929 7.76005C13.0285 8.1956 13.2734 8.78615 13.2741 9.4021V16.3716H8.62771V14.8228H3.98137V19.4692H8.62771V17.9204H13.2741V19.4692C13.2747 19.8797 13.438 20.2733 13.7284 20.5636C14.0187 20.854 14.4123 21.0173 14.8228 21.018H18.6948V22.5667H23.3411V17.9204H18.6948V19.4692H14.8228V14.0484H18.6948V15.5972H23.3411V10.9509H18.6948V12.4997H14.8228V9.4021C14.8201 8.56164 14.5412 7.74536 14.0291 7.07893H18.6948V8.62771H23.3411ZM3.20698 9.4021V3.20698H9.4021V9.4021H3.20698ZM7.07893 17.9204H5.53015V16.3716H7.07893V17.9204ZM20.2436 19.4692H21.7923V21.018H20.2436V19.4692ZM20.2436 12.4997H21.7923V14.0484H20.2436V12.4997ZM20.2436 5.53015H21.7923V7.07893H20.2436V5.53015Z" fill="#1AD6B3"/>
</svg>
