<svg width="31" height="31" viewBox="0 0 31 31" fill="none" xmlns="http://www.w3.org/2000/svg">
<path d="M5.02886 25.1469C4.33732 25.1469 3.74552 24.9009 3.25348 24.4088C2.76144 23.9168 2.515 23.3246 2.51416 22.6322V7.54399C2.51416 6.85245 2.7606 6.26066 3.25348 5.76862C3.74636 5.27658 4.33815 5.03014 5.02886 5.0293H25.1464C25.838 5.0293 26.4302 5.27574 26.9231 5.76862C27.416 6.2615 27.662 6.85329 27.6611 7.54399V22.6322C27.6611 23.3237 27.4151 23.9159 26.9231 24.4088C26.431 24.9017 25.8388 25.1477 25.1464 25.1469H5.02886ZM5.02886 22.6322H25.1464V10.0587H5.02886V22.6322ZM10.907 16.3454L8.518 13.9565C8.26653 13.705 8.14583 13.4116 8.15589 13.0763C8.16594 12.741 8.29713 12.4477 8.54944 12.1962C8.80091 11.9657 9.09429 11.8454 9.42958 11.8353C9.76487 11.8253 10.0583 11.9456 10.3097 12.1962L13.5788 15.4653C13.8303 15.7168 13.956 16.0101 13.956 16.3454C13.956 16.6807 13.8303 16.9741 13.5788 17.2256L10.3097 20.4947C10.0792 20.7252 9.79128 20.8459 9.44593 20.8568C9.10057 20.8677 8.80174 20.747 8.54944 20.4947C8.31892 20.2642 8.20366 19.9708 8.20366 19.6145C8.20366 19.2583 8.31892 18.9649 8.54944 18.7344L10.907 16.3454ZM16.345 21.3748C15.9888 21.3748 15.6903 21.2541 15.4498 21.0127C15.2092 20.7713 15.0885 20.4729 15.0877 20.1175C15.0868 19.7621 15.2075 19.4637 15.4498 19.2223C15.692 18.9808 15.9904 18.8601 16.345 18.8601H21.3744C21.7306 18.8601 22.0295 18.9808 22.2709 19.2223C22.5123 19.4637 22.6326 19.7621 22.6317 20.1175C22.6309 20.4729 22.5102 20.7717 22.2696 21.014C22.0291 21.2562 21.7306 21.3765 21.3744 21.3748H16.345Z" fill="#1AD6B3"/>
</svg>
